<svg width="162" height="25" viewBox="0 0 162 25" fill="none" xmlns="http://www.w3.org/2000/svg">
<path d="M14.375 16.375H19.4375C19.3542 17.9375 18.9271 19.3177 18.1562 20.5156C17.3958 21.7031 16.3385 22.6354 14.9844 23.3125C13.6302 23.9792 12.0208 24.3125 10.1562 24.3125C8.66667 24.3125 7.33333 24.0573 6.15625 23.5469C4.97917 23.0365 3.97917 22.3073 3.15625 21.3594C2.34375 20.401 1.71875 19.25 1.28125 17.9062C0.854167 16.5521 0.640625 15.026 0.640625 13.3281V11.9375C0.640625 10.2396 0.864583 8.71354 1.3125 7.35938C1.76042 6.00521 2.40104 4.84896 3.23438 3.89062C4.06771 2.93229 5.06771 2.19792 6.23438 1.6875C7.40104 1.17708 8.70312 0.921875 10.1406 0.921875C12.0781 0.921875 13.7135 1.27083 15.0469 1.96875C16.3802 2.66667 17.4115 3.625 18.1406 4.84375C18.8802 6.0625 19.3229 7.45312 19.4688 9.01562H14.3906C14.349 8.13021 14.1823 7.38542 13.8906 6.78125C13.599 6.16667 13.151 5.70312 12.5469 5.39062C11.9427 5.07812 11.1406 4.92188 10.1406 4.92188C9.41146 4.92188 8.77083 5.05729 8.21875 5.32812C7.67708 5.59896 7.22396 6.02083 6.85938 6.59375C6.50521 7.16667 6.23958 7.89583 6.0625 8.78125C5.88542 9.65625 5.79688 10.6979 5.79688 11.9062V13.3281C5.79688 14.526 5.875 15.5625 6.03125 16.4375C6.1875 17.3125 6.4375 18.0365 6.78125 18.6094C7.13542 19.1823 7.58854 19.6094 8.14062 19.8906C8.69271 20.1719 9.36458 20.3125 10.1562 20.3125C11.0625 20.3125 11.8177 20.1719 12.4219 19.8906C13.026 19.599 13.4896 19.1615 13.8125 18.5781C14.1354 17.9948 14.3229 17.2604 14.375 16.375ZM21.3125 15.7188V15.3906C21.3125 14.151 21.4896 13.0104 21.8438 11.9688C22.1979 10.9167 22.7188 10.0052 23.4062 9.23438C24.0938 8.46354 24.9375 7.86458 25.9375 7.4375C26.9375 7 28.0833 6.78125 29.375 6.78125C30.6875 6.78125 31.8438 7 32.8438 7.4375C33.8542 7.86458 34.7031 8.46354 35.3906 9.23438C36.0781 10.0052 36.599 10.9167 36.9531 11.9688C37.3073 13.0104 37.4844 14.151 37.4844 15.3906V15.7188C37.4844 16.9479 37.3073 18.0885 36.9531 19.1406C36.599 20.1823 36.0781 21.0938 35.3906 21.875C34.7031 22.6458 33.8594 23.2448 32.8594 23.6719C31.8594 24.099 30.7083 24.3125 29.4062 24.3125C28.1146 24.3125 26.9635 24.099 25.9531 23.6719C24.9427 23.2448 24.0938 22.6458 23.4062 21.875C22.7188 21.0938 22.1979 20.1823 21.8438 19.1406C21.4896 18.0885 21.3125 16.9479 21.3125 15.7188ZM26.2031 15.3906V15.7188C26.2031 16.3854 26.2552 17.0104 26.3594 17.5938C26.474 18.1771 26.6562 18.6875 26.9062 19.125C27.1562 19.5625 27.4844 19.9062 27.8906 20.1562C28.3073 20.3958 28.8125 20.5156 29.4062 20.5156C30 20.5156 30.5 20.3958 30.9062 20.1562C31.3125 19.9062 31.6406 19.5625 31.8906 19.125C32.1406 18.6875 32.3177 18.1771 32.4219 17.5938C32.5365 17.0104 32.5938 16.3854 32.5938 15.7188V15.3906C32.5938 14.7344 32.5365 14.1198 32.4219 13.5469C32.3177 12.9635 32.1406 12.4479 31.8906 12C31.6406 11.5521 31.3073 11.2031 30.8906 10.9531C30.4844 10.7031 29.9792 10.5781 29.375 10.5781C28.7917 10.5781 28.2969 10.7031 27.8906 10.9531C27.4844 11.2031 27.1562 11.5521 26.9062 12C26.6562 12.4479 26.474 12.9635 26.3594 13.5469C26.2552 14.1198 26.2031 14.7344 26.2031 15.3906ZM49.9688 19.9219V7.09375H54.875V24H50.2812L49.9688 19.9219ZM50.4844 16.4688L51.8281 16.4375C51.8281 17.5729 51.6927 18.6198 51.4219 19.5781C51.1615 20.5365 50.7656 21.3698 50.2344 22.0781C49.7135 22.7865 49.0625 23.3385 48.2812 23.7344C47.5104 24.1198 46.6094 24.3125 45.5781 24.3125C44.7448 24.3125 43.9792 24.1979 43.2812 23.9688C42.5938 23.7292 42 23.3594 41.5 22.8594C41 22.349 40.6146 21.6979 40.3438 20.9062C40.0729 20.1042 39.9375 19.1458 39.9375 18.0312V7.09375H44.8125V18.0625C44.8125 18.5 44.8646 18.875 44.9688 19.1875C45.0833 19.4896 45.2344 19.7396 45.4219 19.9375C45.6198 20.1354 45.8594 20.2812 46.1406 20.375C46.4323 20.4688 46.75 20.5156 47.0938 20.5156C47.9583 20.5156 48.6354 20.3385 49.125 19.9844C49.625 19.6198 49.974 19.1354 50.1719 18.5312C50.3802 17.9167 50.4844 17.2292 50.4844 16.4688ZM62.9375 11.0312V24H58.0625V7.09375H62.6406L62.9375 11.0312ZM67.9844 6.96875L67.9062 11.5156C67.6979 11.4844 67.4271 11.4583 67.0938 11.4375C66.7604 11.4062 66.474 11.3906 66.2344 11.3906C65.6094 11.3906 65.0677 11.4688 64.6094 11.625C64.1615 11.7708 63.7865 11.9896 63.4844 12.2812C63.1927 12.5729 62.974 12.9375 62.8281 13.375C62.6823 13.8021 62.6094 14.2969 62.6094 14.8594L61.6875 14.4062C61.6875 13.2917 61.7969 12.2708 62.0156 11.3438C62.2344 10.4167 62.5521 9.61458 62.9688 8.9375C63.3854 8.25 63.8958 7.71875 64.5 7.34375C65.1042 6.96875 65.7917 6.78125 66.5625 6.78125C66.8125 6.78125 67.0677 6.79688 67.3281 6.82812C67.5885 6.85938 67.8073 6.90625 67.9844 6.96875ZM78.9844 19.2969C78.9844 18.9844 78.8854 18.7083 78.6875 18.4688C78.5 18.2292 78.1562 18.0104 77.6562 17.8125C77.1667 17.6146 76.474 17.4167 75.5781 17.2188C74.7344 17.0417 73.9479 16.8125 73.2188 16.5312C72.4896 16.2396 71.8542 15.8906 71.3125 15.4844C70.7708 15.0677 70.349 14.5781 70.0469 14.0156C69.7448 13.4427 69.5938 12.7917 69.5938 12.0625C69.5938 11.3542 69.7448 10.6823 70.0469 10.0469C70.3594 9.41146 70.8073 8.84896 71.3906 8.35938C71.9844 7.86979 72.7031 7.48438 73.5469 7.20312C74.401 6.92188 75.3698 6.78125 76.4531 6.78125C77.9427 6.78125 79.2292 7.01562 80.3125 7.48438C81.3958 7.94271 82.2292 8.58854 82.8125 9.42188C83.3958 10.2448 83.6875 11.1875 83.6875 12.25H78.8125C78.8125 11.8125 78.7292 11.4323 78.5625 11.1094C78.3958 10.7865 78.1406 10.5365 77.7969 10.3594C77.4531 10.1719 77 10.0781 76.4375 10.0781C76 10.0781 75.6146 10.1562 75.2812 10.3125C74.9583 10.4583 74.7031 10.6615 74.5156 10.9219C74.3385 11.1823 74.25 11.4844 74.25 11.8281C74.25 12.0677 74.3021 12.2865 74.4062 12.4844C74.5208 12.6719 74.6927 12.849 74.9219 13.0156C75.1615 13.1719 75.4688 13.3125 75.8438 13.4375C76.2292 13.5625 76.6979 13.6823 77.25 13.7969C78.4271 14.0156 79.5 14.3229 80.4688 14.7188C81.4479 15.1146 82.2292 15.6615 82.8125 16.3594C83.4062 17.0573 83.7031 17.9792 83.7031 19.125C83.7031 19.875 83.5312 20.5625 83.1875 21.1875C82.8542 21.8125 82.3698 22.3594 81.7344 22.8281C81.099 23.2969 80.3385 23.6615 79.4531 23.9219C78.5677 24.1823 77.5677 24.3125 76.4531 24.3125C74.8594 24.3125 73.5104 24.026 72.4062 23.4531C71.3021 22.8802 70.4688 22.1615 69.9062 21.2969C69.3542 20.4219 69.0781 19.526 69.0781 18.6094H73.6562C73.6771 19.1719 73.8177 19.6302 74.0781 19.9844C74.349 20.3385 74.6979 20.599 75.125 20.7656C75.5521 20.9219 76.0312 21 76.5625 21C77.0938 21 77.5365 20.9271 77.8906 20.7812C78.2448 20.6354 78.5156 20.4375 78.7031 20.1875C78.8906 19.9271 78.9844 19.6302 78.9844 19.2969ZM94.3906 24.3125C93.0469 24.3125 91.8438 24.099 90.7812 23.6719C89.7188 23.2448 88.8177 22.6562 88.0781 21.9062C87.349 21.1458 86.7917 20.2708 86.4062 19.2812C86.0208 18.2917 85.8281 17.2344 85.8281 16.1094V15.5156C85.8281 14.2552 86.0052 13.0938 86.3594 12.0312C86.7135 10.9688 87.2292 10.0469 87.9062 9.26562C88.5938 8.47396 89.4375 7.86458 90.4375 7.4375C91.4375 7 92.5781 6.78125 93.8594 6.78125C95.0573 6.78125 96.125 6.97917 97.0625 7.375C98 7.76042 98.7917 8.31771 99.4375 9.04688C100.083 9.76562 100.573 10.6354 100.906 11.6562C101.25 12.6667 101.422 13.8021 101.422 15.0625V17.0625H87.7969V13.9219H96.6406V13.5469C96.6406 12.9531 96.5312 12.4323 96.3125 11.9844C96.1042 11.5365 95.7917 11.1927 95.375 10.9531C94.9688 10.7031 94.4531 10.5781 93.8281 10.5781C93.2344 10.5781 92.7396 10.7031 92.3438 10.9531C91.9479 11.2031 91.6302 11.5573 91.3906 12.0156C91.1615 12.4635 90.9948 12.9896 90.8906 13.5938C90.7865 14.1875 90.7344 14.8281 90.7344 15.5156V16.1094C90.7344 16.7656 90.8229 17.3646 91 17.9062C91.1771 18.4479 91.4375 18.9115 91.7812 19.2969C92.125 19.6823 92.5417 19.9844 93.0312 20.2031C93.5208 20.4219 94.0781 20.5312 94.7031 20.5312C95.474 20.5312 96.2083 20.3854 96.9062 20.0938C97.6042 19.7917 98.2083 19.3229 98.7188 18.6875L101 21.2969C100.656 21.7969 100.172 22.2812 99.5469 22.75C98.9323 23.2083 98.1927 23.5833 97.3281 23.875C96.4635 24.1667 95.4844 24.3125 94.3906 24.3125Z" fill="white"/>
<path d="M126.859 20.0625V24H115.375V20.0625H126.859ZM117.109 1.25V24H112.016V1.25H117.109ZM138.062 19.9688V12.7188C138.062 12.2083 137.984 11.7708 137.828 11.4062C137.672 11.0417 137.427 10.7552 137.094 10.5469C136.76 10.3385 136.328 10.2344 135.797 10.2344C135.349 10.2344 134.958 10.3125 134.625 10.4688C134.302 10.625 134.052 10.849 133.875 11.1406C133.708 11.4323 133.625 11.7917 133.625 12.2188H128.75C128.75 11.4583 128.922 10.75 129.266 10.0938C129.609 9.4375 130.099 8.85938 130.734 8.35938C131.38 7.85938 132.151 7.47396 133.047 7.20312C133.943 6.92188 134.948 6.78125 136.062 6.78125C137.385 6.78125 138.562 7.00521 139.594 7.45312C140.635 7.89062 141.458 8.55208 142.062 9.4375C142.667 10.3125 142.969 11.4167 142.969 12.75V19.8281C142.969 20.849 143.026 21.651 143.141 22.2344C143.266 22.8073 143.443 23.3073 143.672 23.7344V24H138.75C138.521 23.5104 138.349 22.9062 138.234 22.1875C138.12 21.4583 138.062 20.7188 138.062 19.9688ZM138.672 13.6875L138.703 16.375H136.281C135.74 16.375 135.271 16.4427 134.875 16.5781C134.49 16.7135 134.177 16.901 133.938 17.1406C133.698 17.3698 133.521 17.6406 133.406 17.9531C133.302 18.2552 133.25 18.5885 133.25 18.9531C133.25 19.2969 133.333 19.6094 133.5 19.8906C133.667 20.1615 133.896 20.375 134.188 20.5312C134.479 20.6875 134.818 20.7656 135.203 20.7656C135.839 20.7656 136.38 20.6406 136.828 20.3906C137.286 20.1406 137.641 19.8385 137.891 19.4844C138.141 19.1198 138.266 18.7812 138.266 18.4688L139.438 20.5C139.25 20.9167 139.021 21.349 138.75 21.7969C138.479 22.2344 138.135 22.6458 137.719 23.0312C137.302 23.4062 136.797 23.7135 136.203 23.9531C135.62 24.1927 134.917 24.3125 134.094 24.3125C133.031 24.3125 132.068 24.099 131.203 23.6719C130.339 23.2344 129.646 22.6354 129.125 21.875C128.615 21.1146 128.359 20.2396 128.359 19.25C128.359 18.3646 128.521 17.5781 128.844 16.8906C129.167 16.2031 129.651 15.6198 130.297 15.1406C130.953 14.6615 131.776 14.3021 132.766 14.0625C133.755 13.8125 134.911 13.6875 136.234 13.6875H138.672ZM146.188 0H151.062V19.9844L150.562 24H146.188V0ZM161.609 15.3594V15.6875C161.609 16.9688 161.474 18.1354 161.203 19.1875C160.943 20.2396 160.542 21.151 160 21.9219C159.458 22.6823 158.776 23.2708 157.953 23.6875C157.13 24.1042 156.161 24.3125 155.047 24.3125C154.016 24.3125 153.13 24.099 152.391 23.6719C151.651 23.2344 151.031 22.6302 150.531 21.8594C150.031 21.0885 149.625 20.1875 149.312 19.1562C149.01 18.125 148.776 17.0156 148.609 15.8281V15.2656C148.776 14.0781 149.01 12.9688 149.312 11.9375C149.625 10.9062 150.031 10.0052 150.531 9.23438C151.031 8.46354 151.646 7.86458 152.375 7.4375C153.115 7 153.995 6.78125 155.016 6.78125C156.141 6.78125 157.115 6.99479 157.938 7.42188C158.771 7.84896 159.458 8.44792 160 9.21875C160.542 9.97917 160.943 10.8854 161.203 11.9375C161.474 12.9792 161.609 14.1198 161.609 15.3594ZM156.734 15.6875V15.3594C156.734 14.7135 156.688 14.1042 156.594 13.5312C156.51 12.9583 156.359 12.4531 156.141 12.0156C155.932 11.5677 155.635 11.2188 155.25 10.9688C154.875 10.7083 154.391 10.5781 153.797 10.5781C153.214 10.5781 152.719 10.6771 152.312 10.875C151.906 11.0729 151.578 11.3542 151.328 11.7188C151.078 12.0729 150.896 12.5052 150.781 13.0156C150.667 13.526 150.604 14.0938 150.594 14.7188V16.375C150.604 17.2083 150.714 17.9375 150.922 18.5625C151.13 19.1875 151.469 19.6719 151.938 20.0156C152.406 20.349 153.036 20.5156 153.828 20.5156C154.432 20.5156 154.922 20.401 155.297 20.1719C155.682 19.9323 155.974 19.599 156.172 19.1719C156.38 18.7448 156.526 18.2344 156.609 17.6406C156.693 17.0469 156.734 16.3958 156.734 15.6875Z" fill="#5CDB95"/>
</svg>
